<svg width="960" height="300" viewBox="0 0 960 300" fill="none" xmlns="http://www.w3.org/2000/svg" role="img" aria-labelledby="title desc">
  <title id="title">Invoice Generator Logo</title>
  <desc id="desc">A horizontal Invoice Generator logo with document icon and brand text.</desc>

  <defs>
    <linearGradient id="badgeGradient" x1="36" y1="28" x2="272" y2="274" gradientUnits="userSpaceOnUse">
      <stop stop-color="#1976D2"/>
      <stop offset="1" stop-color="#0EA47A"/>
    </linearGradient>
    <linearGradient id="docGradient" x1="98" y1="74" x2="214" y2="204" gradientUnits="userSpaceOnUse">
      <stop stop-color="#FFFFFF"/>
      <stop offset="1" stop-color="#EAF6FF"/>
    </linearGradient>
    <linearGradient id="textGradient" x1="342" y1="74" x2="888" y2="236" gradientUnits="userSpaceOnUse">
      <stop stop-color="#0F2F4D"/>
      <stop offset="1" stop-color="#1976D2"/>
    </linearGradient>
  </defs>

  <rect x="20" y="20" width="268" height="260" rx="58" fill="url(#badgeGradient)"/>

  <path d="M98 80C98 72.268 104.268 66 112 66H186L226 106V206C226 213.732 219.732 220 212 220H112C104.268 220 98 213.732 98 206V80Z" fill="url(#docGradient)"/>
  <path d="M186 66L226 106H196C190.477 106 186 101.523 186 96V66Z" fill="#D8ECFA"/>
  <rect x="120" y="122" width="84" height="8" rx="4" fill="#9CC7EA"/>
  <rect x="120" y="142" width="72" height="8" rx="4" fill="#A9D1EF"/>
  <rect x="120" y="162" width="76" height="8" rx="4" fill="#B8DAF2"/>
  <circle cx="206" cy="178" r="16" fill="#0EA47A"/>
  <path d="M198 178L204 184L214 174" stroke="white" stroke-width="4" stroke-linecap="round" stroke-linejoin="round"/>

  <text x="332" y="154" fill="url(#textGradient)" font-family="Segoe UI, Arial, sans-serif" font-size="100" font-weight="800" letter-spacing="0.8">Invoice</text>
  <text x="336" y="244" fill="#0D5E8C" font-family="Segoe UI, Arial, sans-serif" font-size="80" font-weight="600" letter-spacing="0.4">Generator</text>
</svg>
